<svg id="visual" viewBox="0 0 900 600" width="900" height="600" xmlns="http://www.w3.org/2000/svg" xmlns:xlink="http://www.w3.org/1999/xlink" version="1.1"><g stroke-width="1" stroke-linejoin="bevel"><path d="M395 269L308 329L347 430Z" fill="#00411d" stroke="#00411d"></path><path d="M347 430L487 496L395 269Z" fill="#002300" stroke="#002300"></path><path d="M301 115L173 283L308 329Z" fill="#024c26" stroke="#024c26"></path><path d="M308 329L151 429L347 430Z" fill="#076139" stroke="#076139"></path><path d="M487 496L615 414L395 269Z" fill="#002300" stroke="#002300"></path><path d="M615 414L562 195L395 269Z" fill="#076139" stroke="#076139"></path><path d="M395 269L301 115L308 329Z" fill="#003613" stroke="#003613"></path><path d="M562 195L430 119L395 269Z" fill="#0a784e" stroke="#0a784e"></path><path d="M274 600L402 600L347 430Z" fill="#0a784e" stroke="#0a784e"></path><path d="M347 430L402 600L487 496Z" fill="#000000" stroke="#000000"></path><path d="M487 496L622 600L615 414Z" fill="#001c00" stroke="#001c00"></path><path d="M173 283L151 429L308 329Z" fill="#003613" stroke="#003613"></path><path d="M430 119L301 115L395 269Z" fill="#000000" stroke="#000000"></path><path d="M615 414L654 310L562 195Z" fill="#001c00" stroke="#001c00"></path><path d="M151 429L274 600L347 430Z" fill="#076139" stroke="#076139"></path><path d="M781 491L696 261L654 310Z" fill="#00411d" stroke="#00411d"></path><path d="M654 310L696 261L562 195Z" fill="#024c26" stroke="#024c26"></path><path d="M503 0L340 0L430 119Z" fill="#04562f" stroke="#04562f"></path><path d="M402 600L622 600L487 496Z" fill="#003613" stroke="#003613"></path><path d="M615 414L781 491L654 310Z" fill="#076139" stroke="#076139"></path><path d="M151 429L151 600L274 600Z" fill="#076139" stroke="#076139"></path><path d="M301 115L127 132L173 283Z" fill="#024c26" stroke="#024c26"></path><path d="M173 283L0 407L151 429Z" fill="#00411d" stroke="#00411d"></path><path d="M151 429L0 600L151 600Z" fill="#04562f" stroke="#04562f"></path><path d="M430 119L340 0L301 115Z" fill="#024c26" stroke="#024c26"></path><path d="M301 115L132 0L127 132Z" fill="#076139" stroke="#076139"></path><path d="M503 0L430 119L562 195Z" fill="#096d43" stroke="#096d43"></path><path d="M570 0L503 0L562 195Z" fill="#002300" stroke="#002300"></path><path d="M696 261L700 136L562 195Z" fill="#024c26" stroke="#024c26"></path><path d="M0 249L0 407L173 283Z" fill="#096d43" stroke="#096d43"></path><path d="M622 600L701 600L615 414Z" fill="#024c26" stroke="#024c26"></path><path d="M900 148L757 0L700 136Z" fill="#04562f" stroke="#04562f"></path><path d="M700 136L570 0L562 195Z" fill="#0a784e" stroke="#0a784e"></path><path d="M127 132L0 249L173 283Z" fill="#096d43" stroke="#096d43"></path><path d="M701 600L781 491L615 414Z" fill="#04562f" stroke="#04562f"></path><path d="M0 0L0 169L127 132Z" fill="#096d43" stroke="#096d43"></path><path d="M127 132L0 169L0 249Z" fill="#04562f" stroke="#04562f"></path><path d="M340 0L132 0L301 115Z" fill="#002300" stroke="#002300"></path><path d="M0 407L0 600L151 429Z" fill="#002c08" stroke="#002c08"></path><path d="M900 148L700 136L696 261Z" fill="#003613" stroke="#003613"></path><path d="M700 136L757 0L570 0Z" fill="#003613" stroke="#003613"></path><path d="M900 600L900 404L781 491Z" fill="#002300" stroke="#002300"></path><path d="M781 491L900 404L696 261Z" fill="#000000" stroke="#000000"></path><path d="M900 404L900 303L696 261Z" fill="#001c00" stroke="#001c00"></path><path d="M132 0L0 0L127 132Z" fill="#001c00" stroke="#001c00"></path><path d="M900 303L900 148L696 261Z" fill="#001c00" stroke="#001c00"></path><path d="M701 600L900 600L781 491Z" fill="#0a784e" stroke="#0a784e"></path><path d="M900 148L900 0L757 0Z" fill="#00411d" stroke="#00411d"></path></g></svg>