<?xml version="1.0" encoding="utf-8"?>
<!-- Uploaded to: SVG Repo, www.svgrepo.com, Generator: SVG Repo Mixer Tools -->
<svg width="800px" height="800px" viewBox="0 0 1024 1024" class="icon"  version="1.1" xmlns="http://www.w3.org/2000/svg"><path d="M511.7 958c246.8 0 446.8-200 446.8-446.8S758.5 64.4 511.7 64.4 64.9 264.4 64.9 511.2 265 958 511.7 958z" fill="#5E676F" /><path d="M511.7 902.1c-215.9 0-391-175-391-391s175-391 391-391 391 175 391 391-175 391-391 391z" fill="#FFFFFF" /><path d="M511.7 846.3c-185.1 0-335.1-150-335.1-335.1s150-335.1 335.1-335.1 335.1 150 335.1 335.1-150 335.1-335.1 335.1z" fill="#5E676F" /><path d="M511.7 818.3c169.7 0 307.2-137.5 307.2-307.2S681.4 204 511.7 204 204.5 341.5 204.5 511.2s137.6 307.1 307.2 307.1z" fill="#FFFFFF" /><path d="M452.5 570.4c32.7 32.7 85.8 32.7 118.5 0s158-237 138.2-256.7c-19.7-19.7-224 105.5-256.7 138.2s-32.7 85.8 0 118.5z" fill="#5E676F" /><path d="M492 530.9c10.9 10.9 28.6 10.9 39.5 0 10.9-10.9 10.9-28.6 0-39.5s-28.6-10.9-39.5 0-10.9 28.6 0 39.5z" fill="#FFFFFF" /></svg>